<!-- Generated by IcoMoon.io -->
<svg version="1.1" xmlns="http://www.w3.org/2000/svg" width="32" height="32" viewBox="0 0 32 32">
<path d="M31.088 10.241c-0.071-1.6-0.329-2.7-0.7-3.654-0.382-1.012-0.971-1.918-1.742-2.671-0.753-0.765-1.665-1.359-2.665-1.736-0.959-0.371-2.053-0.629-3.653-0.7-1.612-0.077-2.124-0.094-6.213-0.094s-4.601 0.018-6.207 0.088c-1.6 0.071-2.7 0.33-3.654 0.7-1.012 0.382-1.918 0.971-2.671 1.742-0.765 0.753-1.359 1.665-1.736 2.665-0.371 0.959-0.629 2.053-0.7 3.653-0.077 1.612-0.094 2.124-0.094 6.213s0.018 4.601 0.088 6.207c0.071 1.6 0.33 2.7 0.7 3.654 0.382 1.012 0.977 1.918 1.741 2.671 0.753 0.765 1.665 1.359 2.665 1.736 0.959 0.371 2.053 0.629 3.654 0.7 1.606 0.071 2.118 0.088 6.207 0.088s4.601-0.017 6.207-0.088c1.6-0.071 2.7-0.329 3.654-0.7 2.024-0.782 3.624-2.383 4.407-4.407 0.37-0.959 0.629-2.053 0.7-3.654 0.071-1.606 0.088-2.118 0.088-6.207s-0.006-4.601-0.077-6.207zM28.376 22.538c-0.065 1.471-0.312 2.265-0.518 2.795-0.506 1.312-1.547 2.353-2.859 2.859-0.529 0.206-1.329 0.453-2.795 0.517-1.589 0.071-2.065 0.088-6.084 0.088s-4.501-0.017-6.084-0.088c-1.471-0.065-2.265-0.312-2.795-0.517-0.653-0.241-1.247-0.624-1.73-1.124-0.5-0.488-0.883-1.077-1.124-1.73-0.206-0.529-0.453-1.33-0.518-2.795-0.071-1.589-0.088-2.065-0.088-6.084s0.017-4.501 0.088-6.083c0.065-1.471 0.312-2.265 0.518-2.795 0.241-0.653 0.624-1.247 1.13-1.73 0.488-0.5 1.077-0.883 1.73-1.124 0.53-0.206 1.33-0.453 2.795-0.518 1.589-0.071 2.065-0.088 6.083-0.088 4.024 0 4.501 0.018 6.084 0.088 1.471 0.065 2.265 0.312 2.795 0.518 0.653 0.241 1.247 0.624 1.73 1.124 0.5 0.488 0.882 1.077 1.124 1.73 0.206 0.529 0.453 1.33 0.518 2.795 0.071 1.589 0.088 2.065 0.088 6.083s-0.018 4.489-0.088 6.078z"></path>
<path d="M16.115 8.711c-4.271 0-7.737 3.465-7.737 7.737s3.466 7.737 7.737 7.737c4.271 0 7.737-3.465 7.737-7.737s-3.465-7.737-7.737-7.737zM16.115 21.467c-2.771 0-5.019-2.247-5.019-5.019s2.248-5.019 5.019-5.019c2.771 0 5.019 2.247 5.019 5.019s-2.247 5.019-5.019 5.019z"></path>
<path d="M25.963 8.406c0 0.997-0.809 1.806-1.806 1.806s-1.806-0.809-1.806-1.806c0-0.998 0.809-1.806 1.806-1.806s1.806 0.809 1.806 1.806z"></path>
</svg>
