<!-- Generated by IcoMoon.io -->
<svg version="1.1" xmlns="http://www.w3.org/2000/svg" width="32" height="32" viewBox="0 0 32 32">
<path d="M31.11 31.504v-0.001h0.008v-11.046c0-5.404-1.163-9.566-7.48-9.566-3.037 0-5.075 1.666-5.907 3.246h-0.088v-2.742h-5.99v20.107h6.237v-9.956c0-2.622 0.497-5.156 3.743-5.156 3.199 0 3.246 2.992 3.246 5.325v9.79h6.231z"></path>
<path d="M1.497 11.397h6.244v20.107h-6.244v-20.107z"></path>
<path d="M4.617 1.387c-1.997 0-3.617 1.62-3.617 3.617s1.62 3.65 3.617 3.65c1.997 0 3.617-1.654 3.617-3.651-0.001-1.997-1.621-3.617-3.617-3.617v0z"></path>
</svg>
