<svg aria-hidden="true" style="position: absolute; width: 0; height: 0; overflow: hidden;" version="1.1" xmlns="http://www.w3.org/2000/svg" xmlns:xlink="http://www.w3.org/1999/xlink">
<defs>
<symbol id="icon-facebook" viewBox="0 0 32 32">
<title>facebook</title>
<path d="M21.074 6.387h2.75v-4.789c-0.474-0.065-2.106-0.212-4.006-0.212-3.964 0-6.68 2.494-6.68 7.076v4.218h-4.375v5.353h4.375v13.47h5.363v-13.469h4.198l0.666-5.353h-4.865v-3.688c0.001-1.547 0.418-2.606 2.574-2.606z"></path>
</symbol>
<symbol id="icon-instagram" viewBox="0 0 32 32">
<title>instagram</title>
<path d="M31.088 10.241c-0.071-1.6-0.329-2.7-0.7-3.654-0.382-1.012-0.971-1.918-1.742-2.671-0.753-0.765-1.665-1.359-2.665-1.736-0.959-0.371-2.053-0.629-3.653-0.7-1.612-0.077-2.124-0.094-6.213-0.094s-4.601 0.018-6.207 0.088c-1.6 0.071-2.7 0.33-3.654 0.7-1.012 0.382-1.918 0.971-2.671 1.742-0.765 0.753-1.359 1.665-1.736 2.665-0.371 0.959-0.629 2.053-0.7 3.653-0.077 1.612-0.094 2.124-0.094 6.213s0.018 4.601 0.088 6.207c0.071 1.6 0.33 2.7 0.7 3.654 0.382 1.012 0.977 1.918 1.741 2.671 0.753 0.765 1.665 1.359 2.665 1.736 0.959 0.371 2.053 0.629 3.654 0.7 1.606 0.071 2.118 0.088 6.207 0.088s4.601-0.017 6.207-0.088c1.6-0.071 2.7-0.329 3.654-0.7 2.024-0.782 3.624-2.383 4.407-4.407 0.37-0.959 0.629-2.053 0.7-3.654 0.071-1.606 0.088-2.118 0.088-6.207s-0.006-4.601-0.077-6.207zM28.376 22.538c-0.065 1.471-0.312 2.265-0.518 2.795-0.506 1.312-1.547 2.353-2.859 2.859-0.529 0.206-1.329 0.453-2.795 0.517-1.589 0.071-2.065 0.088-6.084 0.088s-4.501-0.017-6.084-0.088c-1.471-0.065-2.265-0.312-2.795-0.517-0.653-0.241-1.247-0.624-1.73-1.124-0.5-0.488-0.883-1.077-1.124-1.73-0.206-0.529-0.453-1.33-0.518-2.795-0.071-1.589-0.088-2.065-0.088-6.084s0.017-4.501 0.088-6.083c0.065-1.471 0.312-2.265 0.518-2.795 0.241-0.653 0.624-1.247 1.13-1.73 0.488-0.5 1.077-0.883 1.73-1.124 0.53-0.206 1.33-0.453 2.795-0.518 1.589-0.071 2.065-0.088 6.083-0.088 4.024 0 4.501 0.018 6.084 0.088 1.471 0.065 2.265 0.312 2.795 0.518 0.653 0.241 1.247 0.624 1.73 1.124 0.5 0.488 0.882 1.077 1.124 1.73 0.206 0.529 0.453 1.33 0.518 2.795 0.071 1.589 0.088 2.065 0.088 6.083s-0.018 4.489-0.088 6.078z"></path>
<path d="M16.115 8.711c-4.271 0-7.737 3.465-7.737 7.737s3.466 7.737 7.737 7.737c4.271 0 7.737-3.465 7.737-7.737s-3.465-7.737-7.737-7.737zM16.115 21.467c-2.771 0-5.019-2.247-5.019-5.019s2.248-5.019 5.019-5.019c2.771 0 5.019 2.247 5.019 5.019s-2.247 5.019-5.019 5.019z"></path>
<path d="M25.963 8.406c0 0.997-0.809 1.806-1.806 1.806s-1.806-0.809-1.806-1.806c0-0.998 0.809-1.806 1.806-1.806s1.806 0.809 1.806 1.806z"></path>
</symbol>
<symbol id="icon-linkedin" viewBox="0 0 32 32">
<title>linkedin</title>
<path d="M31.11 31.504v-0.001h0.008v-11.046c0-5.404-1.163-9.566-7.48-9.566-3.037 0-5.075 1.666-5.907 3.246h-0.088v-2.742h-5.99v20.107h6.237v-9.956c0-2.622 0.497-5.156 3.743-5.156 3.199 0 3.246 2.992 3.246 5.325v9.79h6.231z"></path>
<path d="M1.497 11.397h6.244v20.107h-6.244v-20.107z"></path>
<path d="M4.617 1.387c-1.997 0-3.617 1.62-3.617 3.617s1.62 3.65 3.617 3.65c1.997 0 3.617-1.654 3.617-3.651-0.001-1.997-1.621-3.617-3.617-3.617v0z"></path>
</symbol>
<symbol id="icon-twitter" viewBox="0 0 32 32">
<title>twitter</title>
<path d="M31.117 7.107c-1.12 0.491-2.313 0.817-3.558 0.975 1.28-0.764 2.257-1.965 2.716-3.413-1.193 0.712-2.511 1.214-3.915 1.495-1.133-1.207-2.748-1.954-4.51-1.954-3.418 0-6.17 2.775-6.17 6.176 0 0.489 0.041 0.96 0.143 1.408-5.133-0.25-9.675-2.711-12.727-6.458-0.533 0.924-0.845 1.982-0.845 3.121 0 2.138 1.101 4.034 2.743 5.131-0.992-0.019-1.965-0.307-2.79-0.76 0 0.019 0 0.043 0 0.068 0 3 2.14 5.493 4.947 6.067-0.503 0.137-1.050 0.203-1.619 0.203-0.395 0-0.794-0.023-1.169-0.105 0.8 2.445 3.070 4.243 5.769 4.301-2.101 1.643-4.768 2.633-7.656 2.633-0.506 0-0.992-0.023-1.478-0.085 2.735 1.764 5.976 2.771 9.472 2.771 11.362 0 17.574-9.412 17.574-17.57 0-0.273-0.009-0.536-0.023-0.798 1.225-0.87 2.255-1.956 3.095-3.206z"></path>
</symbol>
</defs>
</svg>
