<!-- Generated by IcoMoon.io -->
<svg version="1.1" xmlns="http://www.w3.org/2000/svg" width="32" height="32" viewBox="0 0 32 32">
<path d="M31.117 7.107c-1.12 0.491-2.313 0.817-3.558 0.975 1.28-0.764 2.257-1.965 2.716-3.413-1.193 0.712-2.511 1.214-3.915 1.495-1.133-1.207-2.748-1.954-4.51-1.954-3.418 0-6.17 2.775-6.17 6.176 0 0.489 0.041 0.96 0.143 1.408-5.133-0.25-9.675-2.711-12.727-6.458-0.533 0.924-0.845 1.982-0.845 3.121 0 2.138 1.101 4.034 2.743 5.131-0.992-0.019-1.965-0.307-2.79-0.76 0 0.019 0 0.043 0 0.068 0 3 2.14 5.493 4.947 6.067-0.503 0.137-1.050 0.203-1.619 0.203-0.395 0-0.794-0.023-1.169-0.105 0.8 2.445 3.070 4.243 5.769 4.301-2.101 1.643-4.768 2.633-7.656 2.633-0.506 0-0.992-0.023-1.478-0.085 2.735 1.764 5.976 2.771 9.472 2.771 11.362 0 17.574-9.412 17.574-17.57 0-0.273-0.009-0.536-0.023-0.798 1.225-0.87 2.255-1.956 3.095-3.206z"></path>
</svg>
